<svg width="64" height="64" viewBox="0 0 64 64" fill="none" xmlns="http://www.w3.org/2000/svg">
  <!-- Simplified version optimized for small sizes -->
  
  <!-- Central Node -->
  <circle cx="32" cy="32" r="10" fill="#6366f1"/>
  <circle cx="32" cy="32" r="7" fill="#818cf8"/>
  
  <!-- Simplified book icon in center -->
  <rect x="30" y="28" width="4" height="8" fill="white" opacity="0.9"/>
  <rect x="31" y="29" width="2" height="6" fill="#6366f1" opacity="0.5"/>
  
  <!-- Eight surrounding nodes (smaller for clarity at small size) -->
  <!-- Top -->
  <circle cx="32" cy="14" r="4" fill="#818cf8"/>
  <!-- Top-Right -->
  <circle cx="46" cy="20" r="3.5" fill="#818cf8" opacity="0.9"/>
  <!-- Right -->
  <circle cx="50" cy="32" r="4" fill="#818cf8"/>
  <!-- Bottom-Right -->
  <circle cx="46" cy="44" r="3.5" fill="#818cf8" opacity="0.9"/>
  <!-- Bottom -->
  <circle cx="32" cy="50" r="4" fill="#818cf8"/>
  <!-- Bottom-Left -->
  <circle cx="18" cy="44" r="3.5" fill="#818cf8" opacity="0.9"/>
  <!-- Left -->
  <circle cx="14" cy="32" r="4" fill="#818cf8"/>
  <!-- Top-Left -->
  <circle cx="18" cy="20" r="3.5" fill="#818cf8" opacity="0.9"/>
  
  <!-- Simplified connections -->
  <g stroke="#6366f1" stroke-width="1.5" opacity="0.5">
    <line x1="32" y1="25" x2="32" y2="18"/>
    <line x1="37" y1="27" x2="43" y2="22"/>
    <line x1="39" y1="32" x2="46" y2="32"/>
    <line x1="37" y1="37" x2="43" y2="42"/>
    <line x1="32" y1="39" x2="32" y2="46"/>
    <line x1="27" y1="37" x2="21" y2="42"/>
    <line x1="25" y1="32" x2="18" y2="32"/>
    <line x1="27" y1="27" x2="21" y2="22"/>
  </g>
  
  <!-- Outer ring (subtle) -->
  <g stroke="#818cf8" stroke-width="1" opacity="0.2">
    <line x1="32" y1="18" x2="43" y2="22"/>
    <line x1="43" y1="22" x2="46" y2="32"/>
    <line x1="46" y1="32" x2="43" y2="42"/>
    <line x1="43" y1="42" x2="32" y2="46"/>
    <line x1="32" y1="46" x2="21" y2="42"/>
    <line x1="21" y1="42" x2="18" y2="32"/>
    <line x1="18" y1="32" x2="21" y2="22"/>
    <line x1="21" y1="22" x2="32" y2="18"/>
  </g>
</svg>